HIERARCHY
ROOT joint_Root
{
	OFFSET 0.0 0.0 0.0
	CHANNELS 6 Xposition Yposition Zposition Zrotation Xrotation Yrotation 
	JOINT Hips
	{
		OFFSET -17.1583 93.1646 452.98
		CHANNELS 6 Xposition Yposition Zposition Zrotation Xrotation Yrotation 
		JOINT Spine
		{
			OFFSET 15.7357 0.0 0.0
			CHANNELS 6 Xposition Yposition Zposition Zrotation Xrotation Yrotation 
			JOINT Chest
			{
				OFFSET 8.98455 -0.406207 0.0
				CHANNELS 6 Xposition Yposition Zposition Zrotation Xrotation Yrotation 
				JOINT Neck
				{
					OFFSET 16.3773 0.0 0.0
					CHANNELS 6 Xposition Yposition Zposition Zrotation Xrotation Yrotation 
					JOINT Head
					{
						OFFSET 6.45672 0.0 0.0
						CHANNELS 6 Xposition Yposition Zposition Zrotation Xrotation Yrotation 
						End Site
						{
							OFFSET 0.0 0.0 0.0
						}
					}
				}
				JOINT Shoulder_L
				{
					OFFSET 12.9942 -0.242716 4.98039
					CHANNELS 6 Xposition Yposition Zposition Zrotation Xrotation Yrotation 
					JOINT UpperArm_L
					{
						OFFSET 5.34809 0.0 0.0
						CHANNELS 6 Xposition Yposition Zposition Zrotation Xrotation Yrotation 
						JOINT LowerArm_L
						{
							OFFSET 24.3286 1.87007e-05 0.0
							CHANNELS 6 Xposition Yposition Zposition Zrotation Xrotation Yrotation 
							JOINT Hand_L
							{
								OFFSET 22.2916 0.0 0.0
								CHANNELS 6 Xposition Yposition Zposition Zrotation Xrotation Yrotation 
								End Site
								{
									OFFSET 0.0 0.0 0.0
								}
							}
						}
					}
				}
				JOINT Shoulder_R
				{
					OFFSET 12.9945 -0.242716 -4.98039
					CHANNELS 6 Xposition Yposition Zposition Zrotation Xrotation Yrotation 
					JOINT UpperArm_R
					{
						OFFSET -5.34813 0.0 0.0
						CHANNELS 6 Xposition Yposition Zposition Zrotation Xrotation Yrotation 
						JOINT LowerArm_R
						{
							OFFSET -24.3289 0.000322201 0.0
							CHANNELS 6 Xposition Yposition Zposition Zrotation Xrotation Yrotation 
							JOINT Hand_R
							{
								OFFSET -22.2915 -0.000108084 0.0
								CHANNELS 6 Xposition Yposition Zposition Zrotation Xrotation Yrotation 
								End Site
								{
									OFFSET 0.0 0.0 0.0
								}
							}
						}
					}
				}
			}
		}
		JOINT UpperLeg_L
		{
			OFFSET -2.19248 -6.46944 0.0
			CHANNELS 6 Xposition Yposition Zposition Zrotation Xrotation Yrotation 
			JOINT LowerLeg_L
			{
				OFFSET 39.0811 0.0 -1.23785e-05
				CHANNELS 6 Xposition Yposition Zposition Zrotation Xrotation Yrotation 
				JOINT Foot_L
				{
					OFFSET 40.9854 0.0 -1.26872e-05
					CHANNELS 6 Xposition Yposition Zposition Zrotation Xrotation Yrotation 
					JOINT Toes_L
					{
						OFFSET 11.7543 0.0 0.0
						CHANNELS 6 Xposition Yposition Zposition Zrotation Xrotation Yrotation 
						End Site
						{
							OFFSET 0.0 0.0 0.0
						}
					}
				}
			}
		}
		JOINT UpperLeg_R
		{
			OFFSET -2.19251 6.46944 0.0
			CHANNELS 6 Xposition Yposition Zposition Zrotation Xrotation Yrotation 
			JOINT LowerLeg_R
			{
				OFFSET -39.0811 -0.00228153 -0.0401928
				CHANNELS 6 Xposition Yposition Zposition Zrotation Xrotation Yrotation 
				JOINT Foot_R
				{
					OFFSET -40.9854 0.0 0.0
					CHANNELS 6 Xposition Yposition Zposition Zrotation Xrotation Yrotation 
					JOINT Toes_R
					{
						OFFSET -11.7543 0.0 0.0
						CHANNELS 6 Xposition Yposition Zposition Zrotation Xrotation Yrotation 
						End Site
						{
							OFFSET 0.0 0.0 0.0
						}
					}
				}
			}
		}
	}
}
MOTION
Frames:	9
Frame Time:	0.0333333
0.000000 0.000000 0.000000 0.000000 0.000000 -0.000000 176.052000 88.232300 191.405000 100.982000 -40.115400 6.906130 15.735700 0.000005 -0.000001 96.326400 87.671600 -96.934400 8.984550 -0.406207 -0.000000 -3.134400 0.570724 -1.200670 16.377300 -0.000001 -0.000001 9.931620 -8.293230 -1.120650 6.456720 -0.000001 -0.000000 3.877790 -16.311900 -10.540300 12.994200 -0.242716 4.980390 -93.069500 7.226680 -66.912200 5.348090 -0.000007 -0.000001 -59.855900 -12.226100 20.792900 24.328600 0.000019 0.000005 5.590190 26.722400 -12.279500 22.291600 -0.000001 0.000005 50.659400 4.317140 19.526500 12.994500 -0.242716 -4.980390 89.016000 2.593920 -69.217400 -5.348130 -0.000001 -0.000004 -72.202200 -0.303437 -5.590550 -24.328900 0.000322 -0.000009 1.276860 1.646860 -37.834200 -22.291500 -0.000108 -0.000004 40.349500 5.474700 -5.550050 -2.192480 -6.469440 -0.000000 -178.088000 8.245540 -27.231000 39.081100 -0.000007 -0.000012 0.099731 -0.159404 32.031800 40.985400 -0.000006 -0.000013 -8.378640 14.147700 -67.628700 11.754300 -0.000000 0.000003 0.002353 0.103326 -12.386700 -2.192510 6.469440 -0.000001 177.619000 -8.603700 -177.617000 -39.081100 -0.002282 -0.040193 -0.111262 0.104338 47.663000 -40.985400 0.000008 0.000006 11.300700 9.019730 -56.239700 -11.754300 -0.000006 -0.000006 -0.102305 -0.450239 -35.375900
0.000000 0.000000 0.000000 0.000000 0.000000 -0.000000 174.016000 87.789200 194.882000 102.468000 -41.721600 9.671030 15.735700 0.000005 -0.000001 86.659900 86.928500 -87.707200 8.984550 -0.406207 -0.000000 -1.635140 -0.271936 -2.098110 16.377300 -0.000001 -0.000001 9.233380 -8.140990 -1.202630 6.456720 -0.000001 -0.000000 3.252110 -15.491400 -9.372540 12.994200 -0.242716 4.980390 -92.995700 7.236680 -67.440300 5.348090 -0.000007 -0.000001 -61.563400 -11.269300 16.387700 24.328600 0.000019 0.000005 5.087970 25.585600 -11.649400 22.291600 -0.000001 0.000005 51.008100 4.295040 19.867700 12.994500 -0.242716 -4.980390 88.993400 2.656790 -69.240400 -5.348130 -0.000001 -0.000004 -73.472800 -0.634979 -4.077870 -24.328900 0.000322 -0.000009 0.899222 1.497570 -30.962500 -22.291500 -0.000108 -0.000004 39.628200 5.479890 -5.743160 -2.192480 -6.469440 -0.000000 179.899000 7.491030 -25.140000 39.081100 -0.000007 -0.000012 0.235160 -0.320026 36.309100 40.985400 -0.000006 -0.000013 -6.245720 13.778800 -68.426600 11.754300 -0.000000 0.000003 0.001644 0.132638 -11.198000 -2.192510 6.469440 -0.000001 176.619000 -7.506820 177.012000 -39.081100 -0.002282 -0.040193 -0.096651 0.061332 58.442900 -40.985400 0.000008 0.000006 7.102460 6.206420 -43.027300 -11.754300 -0.000006 -0.000006 -0.019443 -0.164184 -23.280000
0.000000 0.000000 0.000000 0.000000 0.000000 -0.000000 171.921000 87.620300 197.785000 103.570000 -44.907500 12.300500 15.735700 0.000005 -0.000001 84.002700 86.058100 -85.284900 8.984550 -0.406207 -0.000000 0.067817 -0.737406 -2.562430 16.377300 -0.000001 -0.000001 8.638090 -7.461840 -1.426070 6.456720 -0.000001 -0.000000 2.530710 -14.247200 -8.643790 12.994200 -0.242716 4.980390 -92.958400 7.297630 -67.860700 5.348090 -0.000007 -0.000001 -63.221000 -11.237500 12.012300 24.328600 0.000019 0.000005 5.507550 24.026800 -13.324000 22.291600 -0.000001 0.000005 51.633000 4.272490 20.214400 12.994500 -0.242716 -4.980390 88.925400 2.859080 -69.391700 -5.348130 -0.000001 -0.000004 -73.821900 1.819210 -3.898170 -24.328900 0.000322 -0.000009 -0.220637 -0.541425 -22.091600 -22.291500 -0.000108 -0.000004 39.021700 5.471970 -5.440920 -2.192480 -6.469440 -0.000000 178.880000 4.307450 -21.809300 39.081100 -0.000007 -0.000012 0.313230 -0.392111 38.619200 40.985400 -0.000006 -0.000013 -4.632900 13.989300 -70.594900 11.754300 -0.000000 0.000003 0.000296 0.162487 -9.986680 -2.192510 6.469440 -0.000001 176.288000 -7.869810 170.798000 -39.081100 -0.002282 -0.040193 0.138072 -0.057743 66.830600 -40.985400 0.000008 0.000006 -0.851898 -4.302170 -31.196700 -11.754300 -0.000006 -0.000006 -0.000245 0.171689 -9.609480
0.000000 0.000000 0.000000 0.000000 0.000000 -0.000000 169.557000 88.073300 200.356000 104.156000 -48.010000 13.820000 15.735700 0.000005 -0.000001 79.167900 85.541700 -80.448600 8.984550 -0.406207 -0.000000 0.975687 -1.599200 -2.545950 16.377300 -0.000001 -0.000001 8.642070 -6.614050 -1.928000 6.456720 -0.000001 -0.000000 2.032730 -12.607200 -8.478340 12.994200 -0.242716 4.980390 -93.048300 7.613850 -68.103600 5.348090 -0.000007 -0.000001 -64.367200 -9.250070 8.229080 24.328600 0.000019 0.000005 6.628280 22.234000 -17.072300 22.291600 -0.000001 0.000005 51.910300 4.281760 20.072400 12.994500 -0.242716 -4.980390 88.896900 2.932970 -69.378600 -5.348130 -0.000001 -0.000004 -74.060800 3.006480 -3.500350 -24.328900 0.000322 -0.000009 0.153116 0.641040 -13.640800 -22.291500 -0.000108 -0.000004 37.239600 5.451010 -4.667450 -2.192480 -6.469440 -0.000000 178.651000 3.051230 -17.469000 39.081100 -0.000007 -0.000012 0.313444 -0.406770 37.617100 40.985400 -0.000006 -0.000013 -4.223350 12.143000 -72.290200 11.754300 -0.000000 0.000003 -0.000421 0.174428 -9.501730 -2.192510 6.469440 -0.000001 177.271000 -6.856240 165.940000 -39.081100 -0.002282 -0.040193 0.126670 -0.037938 72.936700 -40.985400 0.000008 0.000006 0.593452 -12.971800 -38.545600 -11.754300 -0.000006 -0.000006 -0.000539 0.176287 -9.422720
0.000000 0.000000 0.000000 0.000000 0.000000 -0.000000 167.057000 88.763700 202.480000 103.475000 -50.733300 13.667700 15.735700 0.000005 -0.000001 73.139600 85.384000 -74.157600 8.984550 -0.406207 -0.000000 1.048150 -2.616890 -2.010630 16.377300 -0.000001 -0.000001 8.988870 -5.860150 -2.378010 6.456720 -0.000001 -0.000000 2.121260 -10.979000 -8.397850 12.994200 -0.242716 4.980390 -93.124800 7.783660 -68.046100 5.348090 -0.000007 -0.000001 -64.772800 -7.889640 4.738570 24.328600 0.000019 0.000005 8.581900 21.867200 -22.055400 22.291600 -0.000001 0.000005 52.433600 4.287220 19.988100 12.994500 -0.242716 -4.980390 88.910200 2.847710 -69.048800 -5.348130 -0.000001 -0.000004 -74.189900 1.029260 -1.319890 -24.328900 0.000322 -0.000009 0.329157 2.353440 -7.995200 -22.291500 -0.000108 -0.000004 35.847500 5.411700 -3.321150 -2.192480 -6.469440 -0.000000 179.414000 1.926460 -13.096700 39.081100 -0.000007 -0.000012 0.289417 -0.414471 34.926200 40.985400 -0.000006 -0.000013 -4.218600 10.610000 -73.558300 11.754300 -0.000000 0.000003 -0.000758 0.179536 -9.294190 -2.192510 6.469440 -0.000001 179.694000 -5.578180 161.646000 -39.081100 -0.002282 -0.040193 -0.004033 0.001925 74.763600 -40.985400 0.000008 0.000006 3.555770 -17.275100 -44.914500 -11.754300 -0.000006 -0.000006 -0.001413 0.188783 -8.914900
0.000000 0.000000 0.000000 0.000000 0.000000 -0.000000 164.554000 89.570800 204.290000 102.161000 -53.773500 12.276400 15.735700 0.000005 -0.000001 67.603400 85.412200 -68.245700 8.984550 -0.406207 -0.000000 0.700504 -3.455250 -1.262870 16.377300 -0.000001 -0.000001 8.937520 -5.057210 -2.712090 6.456720 -0.000001 -0.000000 2.263860 -9.464210 -7.846610 12.994200 -0.242716 4.980390 -92.966300 7.454050 -68.226900 5.348090 -0.000007 -0.000001 -65.401500 -8.586100 1.944690 24.328600 0.000019 0.000005 11.781100 22.412100 -28.677900 22.291600 -0.000001 0.000005 52.945600 4.249580 20.563700 12.994500 -0.242716 -4.980390 89.073300 2.409660 -68.956500 -5.348130 -0.000001 -0.000004 -73.834000 -1.920060 1.833100 -24.328900 0.000322 -0.000009 0.261779 2.971740 -5.059930 -22.291500 -0.000108 -0.000004 35.951200 5.381880 -2.358740 -2.192480 -6.469440 -0.000000 -179.168000 -0.511540 -8.743760 39.081100 -0.000007 -0.000012 0.257849 -0.434958 30.660300 40.985400 -0.000006 -0.000013 -4.227270 10.243200 -74.050100 11.754300 -0.000000 0.000003 -0.000678 0.178353 -9.342240 -2.192510 6.469440 -0.000001 -177.819000 -5.162430 157.552000 -39.081100 -0.002282 -0.040193 -0.063261 0.019831 73.353100 -40.985400 0.000008 0.000006 3.361990 -17.932500 -51.070000 -11.754300 -0.000006 -0.000006 -0.001302 0.187282 -8.975920
0.000000 0.000000 0.000000 0.000000 0.000000 -0.000000 162.205000 90.330200 205.865000 100.347000 -56.824500 9.906400 15.735700 0.000005 -0.000001 61.640500 85.434000 -61.818200 8.984550 -0.406207 -0.000000 0.265630 -4.324840 -0.345344 16.377300 -0.000001 -0.000001 8.295800 -4.227870 -2.980700 6.456720 -0.000001 -0.000000 2.065650 -7.781780 -7.077040 12.994200 -0.242716 4.980390 -92.773900 7.065340 -68.499800 5.348090 -0.000007 -0.000001 -66.015400 -10.193100 -0.356723 24.328600 0.000019 0.000005 15.586800 22.397800 -36.206100 22.291600 -0.000001 0.000005 53.244600 4.225720 20.925200 12.994500 -0.242716 -4.980390 89.251600 1.948150 -68.981600 -5.348130 -0.000001 -0.000004 -72.639100 -3.459560 4.706120 -24.328900 0.000322 -0.000009 0.248704 4.479850 -3.195890 -22.291500 -0.000108 -0.000004 36.682900 5.374140 -2.115390 -2.192480 -6.469440 -0.000000 -177.085000 -2.891070 -4.751260 39.081100 -0.000007 -0.000012 0.076233 -0.160952 25.344000 40.985400 -0.000006 -0.000013 -7.708630 11.020800 -72.007100 11.754300 -0.000000 0.000003 -0.000010 0.167792 -9.771250 -2.192510 6.469440 -0.000001 -175.657000 -5.225220 153.799000 -39.081100 -0.002282 -0.040193 -0.078209 0.031001 69.134800 -40.985400 0.000008 0.000006 2.356880 -17.201400 -56.375300 -11.754300 -0.000006 -0.000006 -0.001881 0.194882 -8.666910
0.000000 0.000000 0.000000 0.000000 0.000000 -0.000000 160.073000 90.987000 207.364000 99.117500 -59.511700 7.745740 15.735700 0.000005 -0.000001 55.424800 85.399500 -55.275000 8.984550 -0.406207 -0.000000 -0.181088 -5.230580 0.291273 16.377300 -0.000001 -0.000001 7.328290 -3.363880 -3.133240 6.456720 -0.000001 -0.000000 1.697610 -6.029770 -6.303810 12.994200 -0.242716 4.980390 -92.699700 7.026890 -68.920900 5.348090 -0.000007 -0.000001 -66.062900 -11.834200 -2.511910 24.328600 0.000019 0.000005 20.243200 22.693500 -43.704500 22.291600 -0.000001 0.000005 54.124800 4.188690 21.479100 12.994500 -0.242716 -4.980390 89.336300 1.742700 -69.146000 -5.348130 -0.000001 -0.000004 -70.618900 -4.776750 7.362450 -24.328900 0.000322 -0.000009 0.221498 5.543480 -2.302340 -22.291500 -0.000108 -0.000004 36.893200 5.367420 -1.907700 -2.192480 -6.469440 -0.000000 -175.393000 -5.303040 -1.073480 39.081100 -0.000007 -0.000012 -0.041330 0.116583 19.519900 40.985400 -0.000006 -0.000013 -13.694900 11.963900 -67.484300 11.754300 -0.000000 0.000003 0.035005 0.195443 -10.708500 -2.192510 6.469440 -0.000001 -174.375000 -5.108780 150.616000 -39.081100 -0.002282 -0.040193 -0.096883 0.052233 62.436400 -40.985400 0.000008 0.000006 2.686260 -18.792600 -60.047200 -11.754300 -0.000006 -0.000006 -0.001622 0.191552 -8.802330
0.000000 0.000000 0.000000 0.000000 0.000000 -0.000000 158.045000 91.490400 208.823000 98.515900 -61.721700 5.847110 15.735700 0.000005 -0.000001 49.454100 85.338200 -49.119700 8.984550 -0.406207 -0.000000 -0.662103 -6.084230 0.633681 16.377300 -0.000001 -0.000001 6.051090 -2.680950 -3.118590 6.456720 -0.000001 -0.000000 1.259810 -4.430120 -5.432700 12.994200 -0.242716 4.980390 -92.676300 7.171660 -69.472900 5.348090 -0.000007 -0.000001 -65.892900 -13.650300 -4.847490 24.328600 0.000019 0.000005 25.705200 23.126300 -50.786200 22.291600 -0.000001 0.000005 55.032900 4.114270 22.579900 12.994500 -0.242716 -4.980390 89.363800 1.673830 -69.185600 -5.348130 -0.000001 -0.000004 -68.385300 -6.309090 9.597260 -24.328900 0.000322 -0.000009 0.194630 5.679180 -1.976480 -22.291500 -0.000108 -0.000004 37.536600 5.354720 -1.519800 -2.192480 -6.469440 -0.000000 -174.912000 -7.761070 0.593419 39.081100 -0.000007 -0.000012 -0.020350 0.066511 17.012000 40.985400 -0.000006 -0.000013 -14.020400 12.098400 -65.270800 11.754300 -0.000000 0.000003 0.002104 0.116705 -11.844200 -2.192510 6.469440 -0.000001 -173.866000 -4.646560 148.233000 -39.081100 -0.002282 -0.040193 -0.097878 0.075429 53.277300 -40.985400 0.000008 0.000006 2.518410 -21.676400 -62.103800 -11.754300 -0.000006 -0.000006 -0.001828 0.194208 -8.694330
